<?xml version="1.0" encoding="utf-8"?>
<!-- Generator: Adobe Illustrator 21.0.2, SVG Export Plug-In . SVG Version: 6.00 Build 0)  -->
<svg version="1.1" id="Layer_1" xmlns="http://www.w3.org/2000/svg" xmlns:xlink="http://www.w3.org/1999/xlink" x="0px" y="0px"
	 viewBox="0 0 200 200" style="enable-background:new 0 0 200 200;" xml:space="preserve">
<style type="text/css">
	.st0{fill:#006838;}
	.st1{fill:#FFFFFF;}
</style>
<rect class="st0" width="200" height="200"/>
<g>
	<path class="st1" d="M164.6,98.6v72.7h-22.9l-1.9-23.1l-6.4,14.5c-8.1,7.9-19,11.6-34.7,11.6C59,174.2,34,146.1,34,100.8
		c0-46.7,30.4-75,70.2-75c38.6,0,58.7,21.1,61.6,49.2l0.2,2.1h-28.5l-0.4-2.1c-3.5-17.6-14.2-27.9-33.3-27.9
		c-23.1,0-39.7,19.6-39.7,52.1c0,35.5,16.5,53.7,38.8,53.7c18.4,0,31.4-12,34.3-32h-30.2V98.6H164.6z"/>
</g>
</svg>
